<svg width="158" height="151" viewBox="0 0 158 151" fill="none" xmlns="http://www.w3.org/2000/svg">
<g clip-path="url(#clip0_3_177)">
<path d="M41.113 150.736H39.2429C27.2477 150.736 17.4889 140.977 17.4889 128.982C17.4889 116.987 27.2477 107.228 39.2429 107.228H54.0079V93.1823H62.867V107.228H95.1531C103.614 107.228 110.634 101.986 112.622 94.1857L121.207 96.3733C118.202 108.165 107.732 116.087 95.1531 116.087H62.8667V128.982C62.8667 140.977 53.1082 150.736 41.113 150.736ZM39.2426 116.087C32.1323 116.087 26.3477 121.871 26.3477 128.982C26.3477 136.092 32.1323 141.877 39.2426 141.877H41.1127C48.223 141.877 54.0076 136.092 54.0076 128.982V116.087H39.2426Z" fill="#3B83EE"/>
<path d="M112.622 94.1857C110.634 101.986 103.614 107.228 95.1529 107.228H62.8667V93.1823H58.2402V142.369C61.1345 138.675 62.8667 134.028 62.8667 128.981V116.086H95.1529C107.732 116.086 118.202 108.164 121.207 96.373L112.622 94.1857Z" fill="#1975FF"/>
<path d="M117.793 95.3173C123.881 95.3173 128.817 90.3815 128.817 84.2928C128.817 78.2042 123.881 73.2684 117.793 73.2684C111.704 73.2684 106.768 78.2042 106.768 84.2928C106.768 90.3815 111.704 95.3173 117.793 95.3173Z" fill="#1975FF"/>
<path d="M117.793 99.7469C109.272 99.7469 102.339 92.8141 102.339 84.2929C102.339 75.7713 109.272 68.8386 117.793 68.8386C126.314 68.8386 133.247 75.7713 133.247 84.2929C133.247 92.8144 126.314 99.7469 117.793 99.7469ZM117.793 77.6976C114.156 77.6976 111.198 80.6562 111.198 84.2929C111.198 87.9292 114.156 90.8878 117.793 90.8878C121.429 90.8878 124.388 87.9292 124.388 84.2929C124.388 80.6562 121.429 77.6976 117.793 77.6976Z" fill="#8A8AA9"/>
<path d="M58.2405 97.6121C36.4213 97.6121 18.6701 79.861 18.6701 58.0418V19.0886C18.6701 11.2498 25.0475 4.87247 32.8859 4.87247H37.1837V13.7315H32.8859C29.9323 13.7315 27.5292 16.1347 27.5292 19.0886V58.0418C27.5292 74.9761 41.3062 88.7531 58.2405 88.7531C75.1748 88.7531 88.9518 74.9761 88.9518 58.0418V19.6231C88.9518 16.6695 86.5487 14.2663 83.5951 14.2663H79.2152V5.40726H83.5951C91.4335 5.40726 97.8109 11.7846 97.8109 19.6231V58.0418C97.8109 79.8607 80.0594 97.6121 58.2405 97.6121Z" fill="#BDBDD2"/>
<path d="M83.5948 5.40755H79.2149V14.2666H83.5948C86.5484 14.2666 88.9515 16.6698 88.9515 19.6234V58.042C88.9515 74.9764 75.1745 88.7534 58.2402 88.7534V97.6124C80.0594 97.6124 97.8106 79.8613 97.8106 58.042V19.6234C97.8109 11.7846 91.4335 5.40755 83.5948 5.40755Z" fill="#ABABC5"/>
<path d="M72.3246 0C67.1955 0 63.0226 4.1729 63.0226 9.30199C63.0226 14.4311 67.1955 18.604 72.3246 18.604H81.4296V0H72.3246Z" fill="#1975FF"/>
<path d="M44.074 0H34.969V18.604H44.074C49.2031 18.604 53.376 14.4311 53.376 9.30199C53.376 4.1729 49.2034 0 44.074 0Z" fill="#3B83EE"/>
</g>
<g clip-path="url(#clip1_3_177)">
<path d="M157.488 45.642C156.671 42.4393 154.93 39.6781 152.454 37.656C150.041 35.6864 147.085 34.6015 144.132 34.6015C141.867 34.6015 139.707 35.2113 137.711 36.4136C136.135 37.3631 134.717 38.6553 133.479 40.2673C130.662 36.5962 126.943 34.6015 122.831 34.6015C119.878 34.6015 116.923 35.6864 114.511 37.656C112.035 39.6781 110.295 42.4393 109.478 45.6417C108.59 49.1242 108.419 54.6897 112.643 61.4274C116.554 67.6633 123.332 73.441 132.791 78.6006C133.005 78.7177 133.242 78.7761 133.478 78.7761C133.715 78.7761 133.952 78.7177 134.166 78.6006C143.627 73.441 150.408 67.6629 154.32 61.4274C158.546 54.6897 158.375 49.1246 157.488 45.642Z" fill="#A2C4F6"/>
<path d="M157.488 45.642C156.671 42.4393 154.93 39.6781 152.454 37.656C150.041 35.6864 147.085 34.6015 144.132 34.6015C141.867 34.6015 139.707 35.2113 137.711 36.4136C136.136 37.3624 134.72 38.6523 133.483 40.2624V78.776C133.718 78.7749 133.953 78.7169 134.166 78.6005C143.627 73.4409 150.408 67.6629 154.32 61.4273C158.546 54.6897 158.375 49.1245 157.488 45.642Z" fill="#C7DBF9"/>
<path d="M119.382 57.3309L121.174 53.7462L126.043 63.4845C126.287 63.9712 126.784 64.2787 127.328 64.2787C127.872 64.2787 128.37 63.9712 128.613 63.4845L133.482 53.7462L135.274 57.3309C135.517 57.8176 136.015 58.1247 136.559 58.1247H147.452C148.245 58.1247 148.888 57.4817 148.888 56.6886C148.888 55.8955 148.245 55.2524 147.452 55.2524H137.447L134.767 49.8922C134.524 49.4059 134.026 49.0984 133.482 49.0984C132.938 49.0984 132.441 49.4059 132.197 49.8922L127.328 59.6305L122.459 49.8922C122.216 49.4059 121.719 49.0984 121.174 49.0984C120.63 49.0984 120.133 49.4059 119.89 49.8922L117.21 55.2524H109.789C110.064 56.1749 110.418 57.1334 110.865 58.1247H118.098C118.641 58.1247 119.139 57.8176 119.382 57.3309Z" fill="white"/>
<path d="M147.452 55.2524H137.446L134.767 49.8922C134.524 49.4059 134.026 49.0988 133.483 49.0984V53.7481L135.274 57.3309C135.518 57.8176 136.015 58.1247 136.559 58.1247H147.452C148.245 58.1247 148.888 57.4817 148.888 56.6886C148.888 55.8955 148.245 55.2524 147.452 55.2524Z" fill="white"/>
</g>
<defs>
<clipPath id="clip0_3_177">
<rect width="150.736" height="150.736" fill="white"/>
</clipPath>
<clipPath id="clip1_3_177">
<rect width="49.0345" height="49.0345" fill="white" transform="translate(108.966 34.5057)"/>
</clipPath>
</defs>
</svg>
